<svg xmlns="http://www.w3.org/2000/svg" viewBox="0 0 100 100" fill="none">
  <rect width="100" height="100" rx="22" fill="#0f0a1e"/>
  <defs>
    <linearGradient id="g1" x1="0" y1="0" x2="1" y2="1">
      <stop offset="0%" stop-color="#7c3aed"/>
      <stop offset="100%" stop-color="#a78bfa"/>
    </linearGradient>
    <linearGradient id="g2" x1="0" y1="0" x2="1" y2="1">
      <stop offset="0%" stop-color="#a78bfa"/>
      <stop offset="100%" stop-color="#ec4899"/>
    </linearGradient>
  </defs>
  <path d="M50 14 L50 60 L20 60 Z" fill="url(#g1)"/>
  <path d="M50 22 L50 60 L70 60 Z" fill="url(#g2)" opacity="0.85"/>
  <path d="M16 64 Q50 76 84 64 L79 71 Q50 83 21 71 Z" fill="url(#g1)"/>
  <path d="M10 82 Q20 77 30 82 Q40 87 50 82 Q60 77 70 82 Q80 87 90 82" stroke="url(#g1)" stroke-width="3.5" fill="none" stroke-linecap="round"/>
  <path d="M20 92 Q32 87 44 92 Q56 97 68 92 Q76 88 82 92" stroke="url(#g2)" stroke-width="2.5" fill="none" stroke-linecap="round" opacity="0.55"/>
</svg>
